<svg width="96" height="96" viewBox="0 0 96 96" fill="none" xmlns="http://www.w3.org/2000/svg">
<rect width="96" height="96" fill="#20C997"/>
<rect width="96" height="96" fill="#20C997"/>
<path d="M58.3141 44.3529C57.4163 45.2686 55.9198 45.2686 55.0219 44.3529L44.7307 33.8811L28.4997 50.4106L26.9802 48.9314C24.2865 46.1843 24.2865 41.7232 26.9802 38.9761L36.7418 29.0209C39.4355 26.2738 43.8098 26.2738 46.5035 29.0209L58.3141 41.0423C59.212 41.958 59.212 43.4372 58.3141 44.3529ZM59.9257 39.3753C61.7215 41.2067 61.7215 44.1886 59.9257 46.02C57.0019 49.0018 53.9168 46.5365 53.4103 46.02L44.7538 37.1917L31.9301 50.2697C31.0322 51.1854 31.0322 52.6646 31.9301 53.5803C32.828 54.496 34.2784 54.496 35.1993 53.5803L45.8358 42.7328L47.4704 44.3999L36.8339 55.2473C35.9361 56.163 35.9361 57.6422 36.8339 58.5579C37.7318 59.4736 39.1823 59.4736 40.1032 58.5579L50.7397 47.7105L52.3743 49.3775L41.7378 60.225C40.8399 61.1407 40.8399 62.6199 41.7378 63.5356C42.6357 64.4513 44.0861 64.4513 44.984 63.5356L55.6205 52.6881L57.2551 54.3551L46.6186 65.2026C45.7207 66.1183 45.7207 67.5975 46.6186 68.5132C47.5165 69.4289 48.9669 69.4289 49.8648 68.5132L69.0197 48.9314C71.7134 46.1843 71.7134 41.7232 69.0197 38.9761L59.2581 29.0209C56.6105 26.3208 52.3282 26.2738 49.6346 28.88L59.9257 39.3753Z" fill="white"/>
</svg>
