<svg width="128" height="128" viewBox="0 0 128 128" fill="none" xmlns="http://www.w3.org/2000/svg">
<rect width="128" height="128" fill="#20C997"/>
<rect width="128" height="128" fill="#20C997"/>
<path d="M77.7522 59.1372C76.555 60.3582 74.5597 60.3582 73.3625 59.1372L59.641 45.1748L37.9996 67.2141L35.9736 65.2419C32.3821 61.5791 32.3821 55.631 35.9736 51.9682L48.9891 38.6945C52.5807 35.0317 58.4131 35.0317 62.0047 38.6945L77.7522 54.7231C78.9494 55.944 78.9494 57.9163 77.7522 59.1372ZM79.901 52.5004C82.2954 54.9422 82.2954 58.9181 79.901 61.3599C76.0025 65.3358 71.8891 62.0487 71.2138 61.3599L59.6717 49.589L42.5735 67.0263C41.3763 68.2472 41.3763 70.2195 42.5735 71.4404C43.7707 72.6613 45.7046 72.6613 46.9325 71.4404L61.1145 56.9771L63.2939 59.1998L49.1119 73.6631C47.9148 74.8841 47.9148 76.8563 49.1119 78.0772C50.3091 79.2982 52.243 79.2982 53.4709 78.0772L67.6529 63.614L69.8324 65.8367L55.6504 80.3C54.4532 81.5209 54.4532 83.4932 55.6504 84.7141C56.8476 85.935 58.7815 85.935 59.9787 84.7141L74.1607 70.2508L76.3402 72.4735L62.1581 86.9368C60.961 88.1577 60.961 90.13 62.1581 91.3509C63.3553 92.5718 65.2892 92.5718 66.4864 91.3509L92.0263 65.2419C95.6179 61.5791 95.6179 55.631 92.0263 51.9682L79.0108 38.6945C75.4806 35.0944 69.771 35.0317 66.1795 38.5067L79.901 52.5004Z" fill="white"/>
</svg>
