<svg width="152" height="152" viewBox="0 0 152 152" fill="none" xmlns="http://www.w3.org/2000/svg">
<rect width="152" height="152" fill="#20C997"/>
<rect width="152" height="152" fill="#20C997"/>
<path d="M92.3308 70.2255C90.9091 71.6753 88.5397 71.6753 87.118 70.2255L70.8237 53.6451L45.1246 79.8168L42.7187 77.4747C38.4537 73.1252 38.4537 66.0618 42.7187 61.7122L58.1746 45.9498C62.4396 41.6002 69.3656 41.6002 73.6305 45.9498L92.3308 64.9837C93.7524 66.4336 93.7524 68.7756 92.3308 70.2255ZM94.8824 62.3442C97.7258 65.2439 97.7258 69.9652 94.8824 72.8649C90.253 77.5862 85.3683 73.6828 84.5663 72.8649L70.8601 58.8869L50.556 79.5937C49.1343 81.0436 49.1343 83.3857 50.556 84.8355C51.9777 86.2854 54.2742 86.2854 55.7323 84.8355L72.5734 67.6603L75.1616 70.2998L58.3204 87.475C56.8988 88.9248 56.8988 91.2669 58.3204 92.7167C59.7421 94.1666 62.0386 94.1666 63.4967 92.7167L80.3378 75.5416L82.926 78.1811L66.0848 95.3562C64.6632 96.8061 64.6632 99.1481 66.0848 100.598C67.5065 102.048 69.803 102.048 71.2247 100.598L88.0658 83.4228L90.6539 86.0623L73.8128 103.237C72.3911 104.687 72.3911 107.029 73.8128 108.479C75.2345 109.929 77.531 109.929 78.9526 108.479L109.281 77.4747C113.546 73.1252 113.546 66.0618 109.281 61.7122L93.8253 45.9498C89.6333 41.6746 82.8531 41.6002 78.5881 45.7267L94.8824 62.3442Z" fill="white"/>
</svg>
