<svg width="48" height="48" viewBox="0 0 48 48" fill="none" xmlns="http://www.w3.org/2000/svg">
<rect width="48" height="48" fill="#20C997"/>
<rect width="48" height="48" fill="#20C997"/>
<path d="M29.1571 22.1765C28.7081 22.6343 27.9599 22.6343 27.5109 22.1765L22.3654 16.9406L14.2499 25.2053L13.4901 24.4657C12.1433 23.0922 12.1433 20.8616 13.4901 19.4881L18.3709 14.5104C19.7178 13.1369 21.9049 13.1369 23.2517 14.5104L29.1571 20.5212C29.606 20.979 29.606 21.7186 29.1571 22.1765ZM29.9629 19.6876C30.8608 20.6033 30.8608 22.0943 29.9629 23.01C28.5009 24.5009 26.9584 23.2683 26.7052 23.01L22.3769 18.5959L15.965 25.1349C15.5161 25.5927 15.5161 26.3323 15.965 26.7902C16.414 27.248 17.1392 27.248 17.5997 26.7902L22.9179 21.3664L23.7352 22.1999L18.417 27.6237C17.968 28.0815 17.968 28.8211 18.417 29.279C18.8659 29.7368 19.5911 29.7368 20.0516 29.279L25.3698 23.8552L26.1871 24.6888L20.8689 30.1125C20.4199 30.5703 20.4199 31.3099 20.8689 31.7678C21.3178 32.2256 22.043 32.2256 22.492 31.7678L27.8102 26.344L28.6276 27.1776L23.3093 32.6013C22.8604 33.0591 22.8604 33.7987 23.3093 34.2566C23.7582 34.7144 24.4835 34.7144 24.9324 34.2566L34.5099 24.4657C35.8567 23.0922 35.8567 20.8616 34.5099 19.4881L29.629 14.5104C28.3052 13.1604 26.1641 13.1369 24.8173 14.44L29.9629 19.6876Z" fill="white"/>
</svg>
