<svg width="72" height="72" viewBox="0 0 72 72" fill="none" xmlns="http://www.w3.org/2000/svg">
<rect width="72" height="72" fill="#20C997"/>
<rect width="72" height="72" fill="#20C997"/>
<path d="M43.7356 33.2647C43.0622 33.9515 41.9398 33.9515 41.2664 33.2647L33.548 25.4108L21.3748 37.8079L20.2352 36.6985C18.2149 34.6382 18.2149 31.2924 20.2352 29.2321L27.5564 21.7657C29.5766 19.7054 32.8574 19.7054 34.8776 21.7657L43.7356 30.7817C44.409 31.4685 44.409 32.5779 43.7356 33.2647ZM44.9443 29.5315C46.2911 30.905 46.2911 33.1414 44.9443 34.515C42.7514 36.7514 40.4376 34.9024 40.0577 34.515L33.5653 27.8938L23.9476 37.7023C23.2742 38.3891 23.2742 39.4985 23.9476 40.1852C24.621 40.872 25.7088 40.872 26.3995 40.1852L34.3769 32.0496L35.6028 33.2999L27.6255 41.4355C26.952 42.1223 26.952 43.2317 27.6255 43.9185C28.2989 44.6052 29.3867 44.6052 30.0774 43.9185L38.0547 35.7829L39.2807 37.0331L31.3033 45.1687C30.6299 45.8555 30.6299 46.9649 31.3033 47.6517C31.9767 48.3384 33.0646 48.3384 33.738 47.6517L41.7154 39.5161L42.9413 40.7663L34.9639 48.9019C34.2905 49.5887 34.2905 50.6981 34.9639 51.3849C35.6374 52.0717 36.7252 52.0717 37.3986 51.3849L51.7648 36.6985C53.785 34.6382 53.785 31.2924 51.7648 29.2321L44.4436 21.7657C42.4578 19.7406 39.2462 19.7054 37.2259 21.66L44.9443 29.5315Z" fill="white"/>
</svg>
