<svg width="24" height="24" viewBox="0 0 24 24" fill="none" xmlns="http://www.w3.org/2000/svg">
<rect width="24" height="24" fill="#20C997"/>
<path d="M14.5785 10.5882C14.3541 10.8172 13.9799 10.8172 13.7555 10.5882L11.1827 7.97028L7.12493 12.1026L6.74505 11.7328C6.07164 11.0461 6.07164 9.93081 6.74505 9.24404L9.18546 6.75522C9.85888 6.06845 10.9525 6.06845 11.6259 6.75522L14.5785 9.76058C14.803 9.98951 14.803 10.3593 14.5785 10.5882ZM14.9814 9.34382C15.4304 9.80167 15.4304 10.5471 14.9814 11.005C14.2505 11.7505 13.4792 11.1341 13.3526 11.005L11.1884 8.79793L7.98252 12.0674C7.75805 12.2964 7.75805 12.6662 7.98252 12.8951C8.207 13.124 8.5696 13.124 8.79983 12.8951L11.459 10.1832L11.8676 10.6L9.20848 13.3118C8.98401 13.5408 8.98401 13.9106 9.20848 14.1395C9.43296 14.3684 9.79556 14.3684 10.0258 14.1395L12.6849 11.4276L13.0936 11.8444L10.4344 14.5562C10.21 14.7852 10.21 15.155 10.4344 15.3839C10.6589 15.6128 11.0215 15.6128 11.246 15.3839L13.9051 12.672L14.3138 13.0888L11.6546 15.8006C11.4302 16.0296 11.4302 16.3994 11.6546 16.6283C11.8791 16.8572 12.2417 16.8572 12.4662 16.6283L17.2549 11.7328C17.9283 11.0461 17.9283 9.93081 17.2549 9.24404L14.8145 6.75522C14.1526 6.08019 13.0821 6.06845 12.4086 6.72001L14.9814 9.34382Z" fill="white"/>
</svg>
