<svg width="144" height="144" viewBox="0 0 144 144" fill="none" xmlns="http://www.w3.org/2000/svg">
<rect width="144" height="144" fill="#20C997"/>
<rect width="144" height="144" fill="#20C997"/>
<path d="M87.4712 66.5294C86.1244 67.9029 83.8797 67.9029 82.5328 66.5294L67.0961 50.8217L42.7496 75.6159L40.4703 73.3971C36.4298 69.2765 36.4298 62.5849 40.4703 58.4642L55.1128 43.5313C59.1533 39.4107 65.7147 39.4107 69.7552 43.5313L87.4712 61.5635C88.818 62.937 88.818 65.1558 87.4712 66.5294ZM89.8886 59.0629C92.5823 61.81 92.5823 66.2829 89.8886 69.0299C85.5028 73.5028 80.8752 69.8048 80.1155 69.0299L67.1306 55.7876L47.8951 75.4046C46.5483 76.7781 46.5483 78.9969 47.8951 80.3705C49.242 81.744 51.4176 81.744 52.799 80.3705L68.7537 64.0993L71.2057 66.5998L55.2509 82.871C53.9041 84.2446 53.9041 86.4634 55.2509 87.8369C56.5977 89.2104 58.7734 89.2104 60.1547 87.8369L76.1095 71.5657L78.5614 74.0663L62.6067 90.3375C61.2598 91.711 61.2598 93.9298 62.6067 95.3033C63.9535 96.6769 66.1291 96.6769 67.476 95.3033L83.4307 79.0321L85.8827 81.5327L69.9279 97.8039C68.5811 99.1774 68.5811 101.396 69.9279 102.77C71.2747 104.143 73.4504 104.143 74.7972 102.77L103.53 73.3971C107.57 69.2765 107.57 62.5849 103.53 58.4642L88.8871 43.5313C84.9157 39.4812 78.4924 39.4107 74.4519 43.32L89.8886 59.0629Z" fill="white"/>
</svg>
