<svg width="32" height="32" viewBox="0 0 32 32" fill="none" xmlns="http://www.w3.org/2000/svg">
<rect width="32" height="32" fill="#20C997"/>
<path d="M19.4381 14.1176C19.1388 14.4229 18.6399 14.4229 18.3407 14.1176L14.9103 10.627L9.49992 16.1369L8.99342 15.6438C8.09554 14.7281 8.09554 13.2411 8.99342 12.3254L12.2473 9.00696C13.1452 8.09126 14.6033 8.09126 15.5012 9.00696L19.4381 13.0141C19.7374 13.3193 19.7374 13.8124 19.4381 14.1176ZM19.9753 12.4584C20.5739 13.0689 20.5739 14.0628 19.9753 14.6733C19.0006 15.6673 17.9723 14.8455 17.8035 14.6733L14.9179 11.7306L10.6434 16.0899C10.3441 16.3951 10.3441 16.8882 10.6434 17.1934C10.9427 17.4987 11.4262 17.4987 11.7331 17.1934L15.2786 13.5776L15.8235 14.1333L12.278 17.7491C11.9787 18.0543 11.9787 18.5474 12.278 18.8526C12.5773 19.1579 13.0608 19.1579 13.3677 18.8526L16.9132 15.2368L17.4581 15.7925L13.9126 19.4083C13.6133 19.7135 13.6133 20.2066 13.9126 20.5118C14.2119 20.8171 14.6954 20.8171 14.9947 20.5118L18.5402 16.896L19.0851 17.4517L15.5396 21.0675C15.2403 21.3728 15.2403 21.8658 15.5396 22.1711C15.8388 22.4763 16.3223 22.4763 16.6216 22.1711L23.0066 15.6438C23.9045 14.7281 23.9045 13.2411 23.0066 12.3254L19.7527 9.00696C18.8702 8.10691 17.4428 8.09126 16.5449 8.96L19.9753 12.4584Z" fill="white"/>
</svg>
