<svg width="144" height="120" viewBox="0 0 144 120" fill="none" xmlns="http://www.w3.org/2000/svg">
<path d="M104.232 49.4118C101.426 52.0132 96.7494 52.0132 93.9435 49.4118L61.7837 19.6624L11.0617 66.6211L6.31326 62.4188C-2.10442 54.6146 -2.10442 41.9411 6.31326 34.1369L36.8184 5.85494C45.2361 -1.94928 58.9058 -1.94928 67.3235 5.85494L104.232 40.0067C107.038 42.6081 107.038 46.8104 104.232 49.4118ZM109.268 35.2708C114.88 40.4737 114.88 48.9449 109.268 54.1477C100.131 62.619 90.4901 55.6152 88.9073 54.1477L61.8556 29.0675L21.7817 66.2209C18.9758 68.8223 18.9758 73.0246 21.7817 75.626C24.5876 78.2274 29.1202 78.2274 31.998 75.626L65.2371 44.8093L70.3452 49.5452L37.1062 80.3619C34.3003 82.9633 34.3003 87.1656 37.1062 89.767C39.9121 92.3684 44.4447 92.3684 47.3225 89.767L80.5616 58.9503L85.6697 63.6862L52.4307 94.5029C49.6248 97.1043 49.6248 101.307 52.4307 103.908C55.2366 106.509 59.7692 106.509 62.5751 103.908L95.8141 73.0913L100.922 77.8272L67.6832 108.644C64.8773 111.245 64.8773 115.448 67.6832 118.049C70.4891 120.65 75.0217 120.65 77.8276 118.049L137.687 62.4188C146.104 54.6146 146.104 41.9411 137.687 34.1369L107.182 5.85494C98.9078 -1.81588 85.5259 -1.94928 77.1082 5.45472L109.268 35.2708Z" fill="#20C997"/>
</svg>
